<?xml version="1.0" standalone="no"?>
<!DOCTYPE svg PUBLIC "-//W3C//DTD SVG 20010904//EN"
 "http://www.w3.org/TR/2001/REC-SVG-20010904/DTD/svg10.dtd">
<svg version="1.0" xmlns="http://www.w3.org/2000/svg"
 width="1610.000000pt" height="1610.000000pt" viewBox="0 0 1610.000000 1610.000000"
 preserveAspectRatio="xMidYMid meet">
<metadata>
Created by potrace 1.14, written by Peter Selinger 2001-2017
</metadata>
<g transform="translate(0.000000,1610.000000) scale(0.100000,-0.100000)"
fill="#000000" stroke="none">
<path d="M8198 14555 c-2 -2 -41 -5 -86 -6 -45 -1 -82 -6 -82 -10 0 -5 15 -5
33 -2 17 4 174 7 348 7 175 1 312 4 305 8 -11 7 -511 10 -518 3z"/>
<path d="M8749 14547 c4 -4 35 -7 67 -5 l59 3 -67 5 c-37 3 -63 1 -59 -3z"/>
<path d="M8885 14540 c2 -3 25 -7 52 -9 26 -1 45 0 43 2 -8 8 -100 14 -95 7z"/>
<path d="M7865 14530 l-40 -7 37 -2 c20 0 40 4 43 9 3 6 5 9 3 9 -2 -1 -21 -5
-43 -9z"/>
<path d="M7943 14533 c15 -2 39 -2 55 0 15 2 2 4 -28 4 -30 0 -43 -2 -27 -4z"/>
<path d="M8258 14535 c-2 -1 -66 -5 -143 -9 -152 -7 -222 -12 -300 -22 -27 -3
-66 -7 -85 -9 -80 -8 -136 -15 -156 -19 -12 -2 -45 -7 -75 -11 -30 -4 -70 -10
-89 -14 -19 -4 -46 -7 -60 -7 -14 1 -28 -3 -31 -7 -3 -5 -33 -9 -66 -10 -35
-1 -56 -6 -49 -10 6 -5 -3 -7 -21 -5 -19 3 -30 0 -26 -5 4 -6 -3 -8 -15 -5
-12 4 -24 2 -27 -3 -3 -5 -19 -7 -35 -5 -18 2 -27 -1 -23 -7 4 -6 -2 -8 -15
-5 -12 3 -22 2 -24 -3 -2 -5 -22 -10 -45 -11 -25 -1 -40 -5 -36 -11 4 -6 -4
-7 -21 -3 -20 5 -26 4 -20 -5 5 -9 2 -10 -9 -6 -9 3 -19 1 -23 -4 -3 -6 -15
-9 -25 -6 -11 3 -19 1 -19 -5 0 -6 -9 -8 -20 -5 -11 3 -20 2 -20 -3 0 -4 -10
-6 -22 -6 -13 1 -32 -5 -42 -13 -17 -14 -18 -14 -11 -1 7 12 6 13 -7 3 -8 -7
-18 -10 -21 -6 -4 3 -7 1 -7 -6 0 -7 -6 -11 -14 -8 -7 3 -19 0 -26 -6 -10 -9
-11 -9 -5 3 7 12 5 12 -11 -1 -10 -9 -27 -15 -37 -14 -9 2 -15 0 -12 -5 3 -4
-4 -10 -15 -13 -11 -3 -18 -1 -14 4 3 5 -2 6 -10 3 -9 -3 -16 -10 -16 -16 0
-5 -4 -7 -8 -4 -13 8 -72 -10 -202 -61 -314 -121 -366 -141 -381 -140 -25 1
-79 -24 -74 -33 3 -5 0 -12 -6 -16 -8 -4 -9 -3 -5 4 4 7 3 12 -2 12 -17 0
-320 -143 -392 -185 -14 -8 -72 -41 -130 -73 -162 -91 -237 -137 -425 -262
-173 -116 -445 -319 -574 -430 -291 -249 -603 -561 -806 -804 -22 -27 -50 -60
-63 -75 -12 -14 -42 -51 -65 -81 -23 -30 -45 -57 -48 -60 -28 -23 -409 -567
-409 -584 0 -2 -24 -43 -54 -92 -123 -205 -297 -549 -384 -759 -18 -44 -25
-51 -56 -56 -39 -6 -51 7 -13 14 14 3 11 4 -9 4 -20 -1 -30 -5 -27 -13 6 -15
-93 -26 -162 -18 -27 3 -58 5 -67 5 -10 0 -21 5 -24 11 -4 6 -10 5 -15 -3 -6
-10 -9 -10 -9 -2 0 9 -7 10 -25 3 -18 -7 -25 -6 -25 3 0 8 -3 8 -9 -2 -6 -9
-11 -10 -15 -2 -4 7 -15 7 -30 1 -13 -5 -27 -6 -31 -2 -3 4 -11 -1 -16 -11 -6
-9 -15 -17 -20 -17 -6 0 -8 4 -5 8 2 4 -5 8 -17 9 -12 0 -16 -1 -9 -4 6 -3 12
-9 12 -14 0 -6 -4 -8 -9 -4 -5 3 -12 1 -16 -5 -3 -5 -14 -10 -23 -10 -9 0 -37
-10 -62 -21 -25 -11 -47 -21 -50 -21 -3 -1 -11 -8 -18 -15 -8 -7 -17 -11 -22
-8 -5 3 -12 0 -16 -6 -4 -8 -3 -9 4 -5 7 4 12 5 12 3 0 -5 -35 -24 -111 -64
-15 -7 -40 -30 -55 -51 -16 -20 -41 -49 -56 -64 -15 -14 -24 -29 -21 -32 4 -3
1 -6 -5 -6 -6 0 -14 -9 -17 -21 -4 -11 -9 -18 -12 -16 -9 9 -43 -27 -43 -45 0
-10 -4 -18 -10 -18 -5 0 -10 -7 -10 -15 0 -8 -4 -15 -10 -15 -5 0 -10 -6 -10
-14 0 -7 -9 -25 -20 -39 -12 -15 -21 -30 -21 -34 -1 -4 -5 -7 -11 -5 -5 1 -7
-2 -4 -7 8 -12 -4 -42 -14 -36 -5 3 -12 0 -16 -6 -4 -8 -3 -9 4 -5 16 10 15 3
-5 -38 -9 -19 -20 -33 -24 -31 -3 3 -7 -1 -6 -8 1 -32 -4 -48 -13 -42 -6 3
-10 -5 -10 -19 0 -14 -11 -49 -24 -78 -32 -70 -79 -216 -80 -250 -1 -14 -4
-24 -8 -22 -8 5 -23 -73 -19 -100 2 -13 -1 -16 -11 -10 -11 6 -11 5 0 -8 11
-14 10 -18 -5 -27 -10 -6 -15 -11 -11 -11 3 0 0 -21 -8 -46 -12 -42 -12 -45 2
-33 12 10 11 3 -5 -27 -21 -41 -41 -151 -25 -141 11 6 9 -61 -2 -71 -4 -4 -4
1 -1 10 3 10 3 20 -2 22 -12 8 -16 -61 -6 -119 4 -26 4 -27 -5 -7 -10 24 -23
31 -14 7 4 -8 0 -23 -7 -32 -11 -13 -11 -15 -1 -9 11 7 12 -2 8 -40 -3 -33 -2
-44 4 -34 7 11 10 7 9 -15 0 -16 -3 -24 -6 -17 -2 6 -9 10 -13 7 -13 -8 0 -36
14 -28 6 3 3 -3 -7 -14 -20 -23 -23 -37 -5 -27 7 4 5 -2 -5 -13 -19 -21 -23
-38 -7 -28 6 3 10 1 10 -4 0 -6 -4 -11 -9 -11 -13 0 -20 -49 -7 -55 8 -3 7 -7
-1 -11 -7 -3 -13 -10 -13 -15 0 -6 6 -7 13 -3 10 6 10 4 0 -7 -17 -17 -17 -32
-1 -23 10 6 10 4 2 -7 -5 -8 -10 -23 -9 -34 0 -11 -3 -32 -7 -47 -3 -16 -3
-28 1 -28 14 0 -2 -63 -20 -81 -11 -11 -19 -16 -19 -11 0 4 -4 2 -8 -3 -4 -6
-38 -37 -77 -69 -104 -85 -110 -90 -115 -90 -5 0 -34 -24 -92 -76 -15 -14 -49
-43 -75 -65 -108 -91 -315 -303 -308 -316 5 -7 4 -10 -2 -6 -6 4 -19 -6 -29
-21 -10 -15 -24 -33 -31 -40 -18 -19 -32 -45 -52 -105 -10 -29 -33 -90 -50
-137 -76 -202 -87 -284 -48 -360 12 -25 28 -44 35 -42 8 1 11 -2 7 -7 -5 -9
18 -27 38 -30 4 -1 8 -1 10 -2 37 -11 83 -7 101 8 20 17 20 17 6 -1 -14 -17
-13 -18 5 -13 32 9 99 21 108 19 4 -1 7 2 7 7 0 5 12 11 28 14 15 3 41 11 57
18 34 14 40 16 58 18 8 1 8 4 -3 12 -12 8 -10 9 7 4 26 -7 176 52 167 66 -3 5
1 6 9 3 8 -3 29 4 48 15 18 11 37 17 42 14 6 -3 7 -1 3 6 -4 6 -12 9 -17 6 -5
-4 -9 -4 -9 -1 0 3 33 21 73 40 39 18 142 67 227 108 85 41 173 83 195 93 22
10 44 21 49 23 5 3 6 0 2 -6 -4 -7 -13 -12 -21 -12 -8 0 -17 -4 -20 -10 -6
-10 22 -3 40 11 6 4 15 8 20 9 17 3 81 39 70 40 -5 0 -25 -9 -42 -20 -18 -11
-33 -15 -33 -10 0 6 21 21 47 34 126 62 173 88 179 97 4 6 11 6 20 -2 8 -7 14
-7 14 -1 0 5 11 13 25 16 26 7 135 73 135 82 0 2 -25 -11 -55 -31 -70 -44 -72
-32 -3 15 29 19 72 50 95 67 53 40 55 35 6 -13 l-38 -36 47 37 c26 21 46 41
43 45 -3 5 0 12 6 16 8 4 9 3 5 -4 -15 -24 11 -11 42 21 18 18 29 37 25 41 -5
4 -1 6 7 4 8 -1 14 3 12 10 -1 6 1 11 5 11 20 -3 26 2 13 11 -11 7 -11 10 -2
10 7 0 23 11 35 26 l22 25 1 -83 c2 -82 12 -250 20 -318 2 -19 6 -60 9 -90 6
-55 13 -112 20 -160 2 -14 6 -45 9 -70 3 -25 8 -54 10 -65 2 -11 9 -54 16 -95
15 -95 56 -294 70 -340 6 -19 27 -96 46 -170 32 -124 83 -308 136 -485 54
-182 237 -637 336 -835 189 -378 416 -754 618 -1022 99 -132 274 -346 310
-378 15 -14 -15 27 -66 90 -104 127 -279 358 -353 465 -76 110 -169 257 -165
260 2 2 37 -46 78 -108 63 -96 293 -412 309 -427 4 -3 33 -39 66 -80 33 -41
66 -82 75 -90 8 -9 35 -40 60 -70 25 -29 79 -90 121 -134 42 -45 96 -103 120
-131 66 -75 263 -271 354 -352 231 -206 511 -414 885 -655 184 -119 543 -309
771 -408 41 -18 97 -42 124 -55 249 -112 827 -297 1060 -339 39 -7 73 -14 108
-22 16 -3 38 -7 50 -9 22 -2 121 -21 167 -30 60 -13 310 -54 365 -60 33 -4 68
-9 79 -11 10 -2 51 -6 90 -9 39 -3 80 -8 91 -10 83 -16 584 -23 795 -11 172
10 356 25 391 31 10 2 49 7 86 10 37 4 73 11 79 16 6 5 14 6 17 2 4 -3 12 -1
19 4 7 6 36 13 63 17 28 3 61 8 75 12 14 3 41 7 60 10 19 3 79 14 134 25 54
11 104 18 112 15 8 -3 14 -2 14 2 0 4 8 8 18 9 9 1 29 4 45 7 15 3 39 8 55 11
15 3 38 8 52 12 37 9 43 11 70 16 190 41 753 225 925 302 17 7 75 32 130 55
124 52 420 196 534 260 277 154 423 247 661 420 107 77 335 256 371 290 8 8
44 40 79 70 127 110 168 148 320 300 163 164 298 309 386 419 10 13 24 28 29
35 111 124 413 545 407 567 -1 5 2 9 8 9 5 0 10 7 10 15 0 8 5 15 12 15 6 0 8
3 5 7 -4 3 1 12 11 20 9 8 11 11 4 8 -11 -6 -11 -3 -1 13 7 12 16 19 20 16 4
-2 11 1 15 7 4 8 3 9 -4 5 -21 -13 -13 5 53 111 36 57 65 106 65 108 0 2 23
43 51 92 28 48 85 153 126 233 41 80 81 152 88 160 15 18 63 120 111 239 19
47 39 95 44 106 13 27 57 146 81 220 11 33 24 69 29 80 28 64 178 578 196 670
2 11 12 56 23 100 11 44 22 96 25 115 3 19 10 60 16 90 6 30 12 70 15 90 3 19
7 44 9 56 2 12 7 45 11 75 3 30 8 65 10 79 2 14 6 54 10 90 3 36 8 81 10 100
26 225 35 1091 12 1195 -3 11 -8 52 -11 90 -4 39 -9 81 -11 95 -5 35 -14 123
-20 200 -3 36 -11 92 -16 125 -6 33 -13 71 -14 85 -2 14 -9 50 -15 80 -11 55
-17 86 -25 125 -2 11 -13 63 -25 115 -12 52 -23 104 -26 114 -2 10 -8 33 -14
51 -6 18 -12 41 -14 51 -20 99 -198 630 -246 729 -5 11 -18 43 -29 70 -10 28
-33 82 -51 120 -17 39 -43 97 -58 130 -15 33 -54 114 -86 180 -33 66 -68 137
-78 158 l-18 38 38 -29 c46 -37 98 -63 106 -55 3 4 6 1 6 -4 0 -6 51 -37 113
-68 61 -31 131 -68 155 -81 24 -14 50 -23 58 -20 9 3 12 1 9 -4 -8 -13 102
-63 117 -54 7 5 8 2 3 -5 -5 -9 0 -12 16 -9 13 2 29 -3 35 -11 9 -11 12 -12
19 -1 6 9 4 11 -5 5 -9 -5 -11 -4 -6 3 4 7 15 8 29 3 12 -4 45 -7 73 -6 39 1
51 -2 47 -12 -3 -7 0 -13 6 -13 6 0 11 7 11 15 0 10 11 15 33 16 59 1 212 37
360 83 26 8 47 11 47 6 0 -6 5 -10 10 -10 6 0 9 5 8 11 -4 14 201 101 220 94
7 -2 10 -1 7 4 -3 5 -1 12 5 16 5 3 10 1 10 -6 0 -7 7 -4 15 7 12 15 14 15 9
2 -5 -15 -3 -16 20 -5 29 13 36 29 9 21 -15 -5 -16 -4 -3 5 9 6 18 7 24 1 6
-6 23 -1 45 12 55 33 62 45 9 14 -27 -15 -48 -23 -48 -19 0 5 27 23 60 41 33
19 83 49 111 68 29 19 53 33 55 31 2 -1 -10 -11 -27 -22 -16 -11 -29 -24 -29
-28 0 -13 69 44 91 75 18 24 19 31 7 45 -9 12 -9 15 0 9 7 -4 12 -2 12 8 0 24
-11 46 -21 40 -5 -3 -9 4 -9 16 0 11 -7 23 -15 26 -8 4 -15 11 -15 18 0 6 -10
22 -21 36 -11 14 -18 18 -14 10 3 -8 -12 5 -34 29 -23 24 -38 48 -34 55 4 7 1
6 -9 -2 -12 -10 -20 -7 -44 15 -16 15 -32 27 -36 25 -4 -1 -4 6 -1 15 4 11 3
14 -5 9 -7 -4 -12 -2 -12 3 0 6 -7 11 -16 11 -9 0 -12 -5 -8 -12 4 -7 3 -8 -4
-4 -6 4 -9 12 -6 19 3 8 -6 13 -23 15 -15 1 -29 5 -32 10 -3 4 -10 8 -16 9 -5
1 -21 6 -35 12 -22 8 -22 10 -5 11 l20 1 -20 9 c-11 5 -27 9 -35 9 -13 1 -13
0 0 -9 8 -5 11 -10 6 -10 -5 0 -18 8 -29 18 -15 12 -19 13 -13 2 4 -9 2 -8 -7
3 -15 17 -33 24 -23 8 4 -5 -3 -7 -15 -4 -16 4 -18 8 -7 14 8 6 1 7 -18 3 -19
-4 -43 0 -61 9 -33 17 -93 71 -93 83 0 4 -7 15 -15 24 -19 21 -135 251 -135
268 0 7 -4 10 -10 7 -6 -3 -7 1 -4 9 3 9 1 16 -5 16 -6 0 -8 7 -4 17 5 12 3
14 -8 8 -12 -7 -12 -6 -1 7 8 11 9 18 3 23 -6 3 -15 24 -21 45 -6 22 -15 40
-21 40 -5 0 -9 6 -7 13 4 23 -60 179 -80 191 -5 3 -1 -11 9 -32 9 -20 20 -48
23 -62 4 -14 -7 4 -25 40 -17 36 -32 70 -33 75 -1 6 -8 20 -14 33 -15 26 -5
29 14 5 15 -19 -26 71 -69 152 -34 65 -35 50 -1 -18 14 -29 22 -47 16 -42 -9
10 -102 184 -102 192 0 2 4 1 10 -2 6 -3 7 1 3 10 -4 12 -8 13 -13 5 -8 -14
-60 66 -60 91 0 8 12 -5 26 -28 26 -45 44 -60 23 -20 -19 36 -129 197 -134
197 -3 0 15 -30 39 -67 25 -37 43 -69 39 -72 -3 -4 -8 -1 -10 6 -11 30 -116
157 -197 238 -92 92 -125 119 -183 149 -21 11 -30 21 -27 31 6 14 -11 20 -45
16 -7 -2 -10 2 -6 8 3 6 0 9 -8 5 -8 -3 -18 0 -23 7 -5 8 -3 10 7 4 8 -5 10
-4 6 0 -10 12 -38 15 -31 4 7 -12 -19 -11 -53 2 -15 6 -37 13 -48 15 -83 16
-125 24 -158 27 -55 7 -57 16 -3 13 24 -1 43 1 40 6 -3 4 -28 8 -55 8 -31 0
-48 -4 -44 -10 3 -5 2 -10 -4 -10 -5 0 -11 5 -13 12 -5 14 -98 19 -98 5 0 -5
6 -7 13 -4 8 3 29 2 48 -3 26 -6 14 -8 -51 -9 -90 -1 -155 -6 -205 -16 -66
-12 -111 -19 -137 -20 -16 0 -28 -3 -28 -7 0 -3 -9 -4 -20 -1 -11 3 -20 1 -20
-5 0 -5 -6 -10 -12 -9 -32 1 -49 -4 -44 -12 4 -5 -4 -7 -16 -3 -16 4 -19 2
-13 -8 5 -9 4 -11 -4 -6 -6 4 -18 2 -26 -4 -8 -6 -19 -9 -25 -5 -5 3 -10 1
-10 -4 0 -6 -3 -10 -7 -9 -5 1 -18 -3 -30 -10 -13 -7 -23 -10 -23 -6 0 3 -6 1
-14 -5 -7 -6 -20 -9 -28 -6 -9 4 -18 0 -21 -8 -3 -8 -18 -18 -34 -21 -15 -4
-35 -14 -43 -21 -8 -7 -22 -15 -30 -17 -8 -2 -21 -9 -28 -16 -8 -7 -17 -10
-22 -7 -4 3 -10 -2 -14 -10 -3 -8 -10 -15 -16 -15 -6 0 -8 5 -4 12 4 7 3 8 -5
4 -6 -4 -9 -11 -7 -14 2 -4 -14 -18 -37 -30 -23 -13 -34 -17 -24 -9 9 8 17 18
17 23 -1 5 -15 -7 -32 -26 -17 -19 -27 -28 -23 -20 5 8 -5 3 -21 -11 -56 -51
-172 -119 -190 -112 -13 5 -15 3 -9 -8 5 -8 -1 -6 -13 5 -12 10 -20 22 -17 26
6 9 -124 115 -142 115 -8 0 -28 16 -46 36 -18 19 -25 26 -17 15 11 -14 4 -11
-22 8 -21 16 -38 31 -38 33 0 3 8 -1 18 -8 15 -13 16 -12 3 3 -7 10 -17 15
-22 12 -11 -6 -81 45 -75 55 3 4 -4 13 -16 20 -16 10 -19 10 -13 -1 4 -7 -3
-2 -14 12 -11 14 -21 21 -21 16 0 -5 -8 1 -19 12 -10 12 -22 22 -27 22 -5 0
-16 9 -24 19 -7 11 -17 18 -21 15 -5 -3 -17 4 -28 15 -11 11 -22 17 -25 14 -3
-4 -6 -1 -6 5 0 6 -6 12 -12 14 -7 2 -58 33 -113 69 -132 87 -262 169 -270
169 -3 0 -31 16 -61 35 -30 19 -56 35 -58 35 -10 0 -171 95 -174 102 -2 4 -13
8 -23 8 -13 0 -18 4 -13 12 5 8 2 9 -9 5 -9 -3 -20 -1 -24 6 -5 7 -39 28 -78
46 -84 40 -316 142 -330 146 -5 1 -23 8 -40 14 -106 44 -377 139 -419 147 -12
2 -30 8 -41 13 -40 19 -477 135 -585 155 -14 2 -95 18 -180 35 -85 17 -175 34
-200 37 -25 3 -63 8 -85 11 -22 3 -56 7 -75 10 -19 2 -105 6 -190 8 -85 2
-191 6 -235 10 -74 6 -611 15 -617 10z m969 -31 c-3 -3 -12 -4 -19 -1 -8 3 -5
6 6 6 11 1 17 -2 13 -5z m1498 -372 c-3 -3 -11 0 -18 7 -9 10 -8 11 6 5 10 -3
15 -9 12 -12z m-4830 -122 c-3 -5 -12 -10 -18 -10 -7 0 -6 4 3 10 19 12 23 12
15 0z m8490 -670 c3 -5 1 -10 -4 -10 -6 0 -11 5 -11 10 0 6 2 10 4 10 3 0 8
-4 11 -10z m-1850 -230 c10 -11 16 -20 13 -20 -3 0 -13 9 -23 20 -10 11 -16
20 -13 20 3 0 13 -9 23 -20z m88 -79 c-2 -3 -18 10 -36 29 l-32 34 36 -30 c20
-16 34 -31 32 -33z m2401 -477 c3 -8 2 -12 -4 -9 -6 3 -10 10 -10 16 0 14 7
11 14 -7z m121 -274 c3 -5 1 -10 -4 -10 -6 0 -11 5 -11 10 0 6 2 10 4 10 3 0
8 -4 11 -10z m916 -1053 l-23 -22 17 28 c10 15 20 25 23 22 3 -3 -5 -16 -17
-28z m-1787 -273 c3 -8 2 -12 -4 -9 -6 3 -10 10 -10 16 0 14 7 11 14 -7z m52
-105 c46 -95 57 -122 44 -114 -6 3 -10 10 -10 15 0 5 -18 46 -40 91 -22 45
-40 84 -40 87 0 12 12 -8 46 -79z m344 55 c0 -2 -9 0 -20 6 -11 6 -20 13 -20
16 0 2 9 0 20 -6 11 -6 20 -13 20 -16z m55 -24 c3 -6 -1 -7 -9 -4 -18 7 -21
14 -7 14 6 0 13 -4 16 -10z m-306 -235 c0 -5 -8 6 -19 25 -11 19 -19 40 -19
45 0 6 8 -6 19 -25 11 -19 19 -39 19 -45z m35 -85 c3 -14 -3 -7 -13 15 -11 22
-20 45 -20 50 0 15 26 -37 33 -65z m-13353 -1173 c-10 -9 -11 -8 -5 6 3 10 9
15 12 12 3 -3 0 -11 -7 -18z m-53 -259 c-6 -18 -13 -27 -15 -21 -4 11 13 53
22 53 2 0 -1 -15 -7 -32z m-21 -70 c-3 -7 -5 -2 -5 12 0 14 2 19 5 13 2 -7 2
-19 0 -25z m13870 -155 c-3 -10 -5 -4 -5 12 0 17 2 24 5 18 2 -7 2 -21 0 -30z
m10 -60 c-3 -10 -5 -4 -5 12 0 17 2 24 5 18 2 -7 2 -21 0 -30z m10 -95 c-2
-13 -4 -5 -4 17 -1 22 1 32 4 23 2 -10 2 -28 0 -40z m10 -95 c-3 -10 -5 -2 -5
17 0 19 2 27 5 18 2 -10 2 -26 0 -35z m12 -115 c-1 -68 -6 -61 -11 15 -2 26 0
47 4 47 5 0 7 -28 7 -62z m14 -196 c3 -68 3 -121 0 -118 -3 3 -8 60 -10 128
-3 68 -3 121 0 118 2 -3 7 -61 10 -128z m5 -269 c-2 -140 -5 -123 -10 45 -2
50 0 92 5 92 4 0 6 -62 5 -137z m2 -168 c0 -14 -2 -25 -4 -25 -2 0 -6 11 -8
25 -3 14 -1 25 3 25 5 0 9 -11 9 -25z m-5 -85 c3 -5 1 -10 -4 -10 -6 0 -11 5
-11 10 0 6 2 10 4 10 3 0 8 -4 11 -10z m-8 -72 c-3 -8 -6 -5 -6 6 -1 11 2 17
5 13 3 -3 4 -12 1 -19z m-13095 -18 c-12 -12 -22 -18 -22 -14 0 12 33 45 38
39 3 -3 -4 -14 -16 -25z m13095 -32 c-3 -7 -5 -2 -5 12 0 14 2 19 5 13 2 -7 2
-19 0 -25z m-10 -90 c-3 -8 -6 -5 -6 6 -1 11 2 17 5 13 3 -3 4 -12 1 -19z
m-14637 -664 c0 -8 -19 -13 -24 -6 -3 5 1 9 9 9 8 0 15 -2 15 -3z m2680 -2349
c14 -19 14 -19 -2 -6 -10 7 -18 18 -18 24 0 6 1 8 3 6 1 -2 9 -13 17 -24z
m6323 -2982 c-7 -2 -19 -2 -25 0 -7 3 -2 5 12 5 14 0 19 -2 13 -5z"/>
<path d="M8998 14533 c7 -3 16 -2 19 1 4 3 -2 6 -13 5 -11 0 -14 -3 -6 -6z"/>
<path d="M9068 14523 c12 -2 32 -2 45 0 12 2 2 4 -23 4 -25 0 -35 -2 -22 -4z"/>
<path d="M13836 13448 c3 -5 10 -6 15 -3 13 9 11 12 -6 12 -8 0 -12 -4 -9 -9z"/>
<path d="M13658 13433 c6 -2 18 -2 25 0 6 3 1 5 -13 5 -14 0 -19 -2 -12 -5z"/>
<path d="M14108 13433 c7 -3 16 -2 19 1 4 3 -2 6 -13 5 -11 0 -14 -3 -6 -6z"/>
<path d="M14230 13410 c8 -5 20 -10 25 -10 6 0 3 5 -5 10 -8 5 -19 10 -25 10
-5 0 -3 -5 5 -10z"/>
<path d="M14520 13259 c34 -28 64 -49 66 -46 5 5 -109 97 -121 97 -3 0 22 -23
55 -51z"/>
<path d="M12321 13277 c2 -1 15 -11 29 -22 l25 -20 -19 23 c-11 12 -24 22 -29
22 -6 0 -8 -1 -6 -3z"/>
<path d="M12470 13166 c0 -2 8 -10 18 -17 15 -13 16 -12 3 4 -13 16 -21 21
-21 13z"/>
<path d="M14651 13143 c6 -10 26 -29 43 -42 26 -21 25 -18 -9 17 -42 45 -52
52 -34 25z"/>
<path d="M12655 13010 c3 -5 8 -10 11 -10 2 0 4 5 4 10 0 6 -5 10 -11 10 -5 0
-7 -4 -4 -10z"/>
<path d="M14920 12764 c0 -6 7 -19 16 -30 14 -18 14 -18 3 6 -14 31 -19 36
-19 24z"/>
<path d="M15870 11542 c0 -4 10 -13 23 -21 22 -14 22 -14 3 8 -20 22 -26 25
-26 13z"/>
<path d="M15950 11476 c0 -2 8 -10 18 -17 15 -13 16 -12 3 4 -13 16 -21 21
-21 13z"/>
<path d="M15655 10979 c-16 -10 -26 -19 -22 -19 11 0 67 29 67 35 0 9 -15 4
-45 -16z"/>
<path d="M15600 10950 c-9 -6 -10 -10 -3 -10 6 0 15 5 18 10 8 12 4 12 -15 0z"/>
<path d="M15387 10883 c-27 -8 -47 -17 -44 -19 2 -2 30 4 63 15 32 10 52 19
44 19 -8 0 -37 -7 -63 -15z"/>
<path d="M15285 10850 c-16 -7 -17 -9 -3 -9 9 -1 20 4 23 9 7 11 7 11 -20 0z"/>
<path d="M15228 10833 c6 -2 18 -2 25 0 6 3 1 5 -13 5 -14 0 -19 -2 -12 -5z"/>
<path d="M15188 10823 c7 -3 16 -2 19 1 4 3 -2 6 -13 5 -11 0 -14 -3 -6 -6z"/>
<path d="M15128 10813 c7 -3 16 -2 19 1 4 3 -2 6 -13 5 -11 0 -14 -3 -6 -6z"/>
<path d="M15045 10800 c-3 -6 1 -7 9 -4 18 7 21 14 7 14 -6 0 -13 -4 -16 -10z"/>
<path d="M15088 10803 c7 -3 16 -2 19 1 4 3 -2 6 -13 5 -11 0 -14 -3 -6 -6z"/>
<path d="M2300 10540 c-9 -6 -10 -10 -3 -10 6 0 15 5 18 10 8 12 4 12 -15 0z"/>
<path d="M1755 10470 c-3 -6 1 -7 9 -4 18 7 21 14 7 14 -6 0 -13 -4 -16 -10z"/>
<path d="M1480 7470 c0 -5 7 -7 15 -4 8 4 15 8 15 10 0 2 -7 4 -15 4 -8 0 -15
-4 -15 -10z"/>
<path d="M1450 7455 c-11 -13 -10 -14 4 -9 9 3 16 10 16 15 0 13 -6 11 -20 -6z"/>
<path d="M1403 7430 c-13 -5 -23 -11 -23 -14 0 -7 40 6 46 15 6 10 6 10 -23
-1z"/>
<path d="M1165 7315 c-22 -14 -35 -25 -30 -25 6 0 28 11 50 25 22 13 36 24 30
24 -5 0 -28 -11 -50 -24z"/>
<path d="M1050 7260 c-30 -16 -50 -29 -45 -29 6 0 35 13 65 29 30 16 51 29 45
29 -5 0 -35 -13 -65 -29z"/>
<path d="M925 7200 c-21 -14 -25 -20 -12 -20 9 0 17 4 17 8 0 5 10 14 23 20
12 6 18 11 12 11 -5 1 -23 -8 -40 -19z"/>
<path d="M854 7165 c-18 -13 -18 -14 4 -8 12 3 25 9 28 14 8 14 -10 11 -32 -6z"/>
</g>
</svg>
